<?xml version="1.0" encoding="UTF-8"?>
<!-- Generated by Pixelmator Pro 3.4.3 -->
<svg width="605" height="660" viewBox="0 0 605 660" xmlns="http://www.w3.org/2000/svg">
    <path id="Path" fill="#000000" stroke="none" d="M 442.07959 392.043945 C 497.757874 368.402466 534.957825 328.173828 552.237183 270.581055 C 568.59137 216.071533 558.386841 165.342896 526.09845 119.212524 C 495.718628 75.808777 452.853516 50.965698 401.843323 38.979675 C 381.189514 34.126587 360.290771 33.833069 339.275269 34.007263 C 312.612762 34.228271 285.947876 34.173401 259.283997 34.205078 C 249.011292 34.217285 240.592285 26.533691 240.715027 17.355347 C 240.839417 8.054565 248.644714 0.961548 259.131531 0.942505 C 293.460938 0.880249 327.829163 -0.119873 362.111206 1.155396 C 417.244446 3.206299 468.082336 19.031555 511.469849 54.31665 C 548.141907 84.140381 574.25238 121.565552 586.075745 167.611694 C 602.81842 232.815918 590.442993 293.108765 551.723022 347.854065 C 518.265076 395.159363 472.137268 423.044006 415.606873 434.282288 C 412.363342 434.927185 409.119934 435.575623 405.893127 436.297058 C 405.483643 436.388672 405.176331 436.93689 403.913086 438.135925 C 470.82782 511.425781 537.717529 584.688293 604.485535 657.817444 C 602.86322 659.882813 601.640198 659.507263 600.515137 659.506226 C 559.019714 659.469116 517.524048 659.360413 476.029114 659.485107 C 471.467407 659.49884 468.253845 658.23877 465.21521 654.821411 C 437.203979 623.318604 409.120056 591.879822 380.931519 560.535522 C 356.087219 532.909973 331.038879 505.467957 306.167542 477.866577 C 295.238159 465.737488 284.425903 453.498596 273.787048 441.114929 C 271.345856 438.273315 268.844086 437.253357 265.205353 437.293457 C 251.042023 437.449646 236.875671 437.328552 222.710449 437.31665 C 216.401154 437.311401 216.353485 437.343262 216.352631 443.786316 C 216.343781 509.779785 216.201019 575.773804 216.480804 641.766052 C 216.526886 652.637085 210.334229 660.231384 198.168213 659.729736 C 172.713837 658.679932 147.18634 659.41925 121.688904 659.389282 C 111.100922 659.376831 105.392914 653.883362 104.965881 643.177246 C 104.773407 638.352051 104.929321 633.512939 104.92804 628.680176 C 104.911896 567.686523 104.896118 506.692871 104.878754 445.699219 C 104.878418 444.532837 104.778107 443.360107 104.86615 442.201172 C 105.145111 438.530029 103.502563 437.280334 99.849884 437.3172 C 86.019531 437.456909 72.186035 437.424622 58.354889 437.310974 C 47.495193 437.22168 39.399872 425.829834 42.768326 415.58728 C 45.002716 408.793152 51.087433 404.745605 59.002411 404.758728 C 109.163879 404.842102 159.325287 404.943298 209.486786 404.994385 C 263.981323 405.049866 318.475922 405.03949 372.970459 405.093689 C 396.708679 405.11731 419.658081 401.021973 442.07959 392.043945 Z"/>
    <path id="path1" fill="#000000" stroke="none" d="M 145.999786 198.685303 C 152.165588 198.671509 157.831512 198.662109 163.497406 198.642761 C 166.695465 198.631836 169.840271 198.178467 172.732483 196.797485 C 178.354248 194.113159 181.822388 187.294739 180.680664 181.465698 C 179.523499 175.557739 174.033264 171.167908 167.146332 171.041138 C 151.488892 170.75293 135.823486 170.290771 120.170776 170.526367 C 105.510162 170.746948 90.871429 170.787781 76.208466 170.473633 C 56.88678 170.059692 37.549133 170.356384 18.218506 170.406677 C 8.601532 170.431702 -0.051025 162.902039 0.394989 153.945007 C 0.89682 143.86731 9.228241 137.690918 18.011002 137.707397 C 44.674164 137.757507 71.337494 137.724854 98.000732 137.720825 C 104.861176 137.719727 104.928162 137.713806 104.941132 130.791382 C 104.987946 105.794739 105.026276 80.797974 104.984894 55.801392 C 104.964142 43.264893 96.308594 34.421143 83.784424 34.153931 C 79.441345 34.061279 75.526337 32.992859 72.174713 30.277161 C 67.415817 26.421143 64.213181 21.824646 65.339188 15.205078 C 66.528381 8.214111 70.646332 3.938171 77.240387 1.812378 C 79.977631 0.929932 82.803497 0.908386 85.646057 0.907776 C 121.641418 0.900085 157.63681 0.864868 193.632172 0.846924 C 207.903534 0.839783 216.331512 9.227722 216.337341 23.446045 C 216.349976 54.275452 216.343262 85.104858 216.358032 115.934204 C 216.361206 122.560059 216.439178 122.660522 223.031586 122.664429 C 264.359558 122.688965 305.687653 122.632813 347.015442 122.726929 C 363.890381 122.765381 380.722351 124.093872 396.772888 129.557495 C 434.69281 142.465271 459.179199 167.882813 465.943115 208.033447 C 472.306396 245.806274 450.544006 286.573547 416.245239 303.674072 C 399.544617 312.00061 381.937317 316.324829 363.297485 316.328247 C 261.477325 316.347046 159.657135 316.338501 57.836975 316.313599 C 48.298447 316.311279 39.467606 307.590698 40.082245 298.960693 C 40.754593 289.520996 49.177567 283.093689 59.170853 283.403259 C 72.656067 283.820923 86.162994 283.531799 99.660553 283.563354 C 102.566315 283.57019 103.930969 282.120605 103.949921 279.269165 C 103.976501 275.270508 104.031311 271.272095 104.053589 267.273438 C 104.088593 261.001953 104.323944 260.738892 110.465546 260.732483 C 128.963104 260.713257 147.461456 260.800049 165.957886 260.650146 C 173.316498 260.590454 179.936523 254.700134 180.690277 248.110718 C 181.552216 240.575806 177.120911 234.46582 169.286591 232.143555 C 166.830109 231.415405 164.370178 231.366455 161.872711 231.36499 C 124.377502 231.343628 86.882294 231.322021 49.3871 231.301514 C 44.2211 231.298706 39.054077 231.366455 33.889297 231.287109 C 24.310196 231.139893 16.361908 223.173584 16.671951 214.122681 C 16.988998 204.868225 24.645416 198.51709 34.51857 198.55957 C 71.511841 198.718628 108.506042 198.66156 145.999786 198.685303 M 422.22113 188.294556 C 417.630127 181.679932 412.425598 175.638062 405.678406 171.119202 C 389.691162 160.411865 371.849731 155.558716 352.812195 155.464355 C 309.329865 155.249023 265.845551 155.459473 222.362946 155.279053 C 217.371002 155.258423 216.245911 157.029785 216.264069 161.662537 C 216.414825 200.147217 216.342865 238.632751 216.356445 277.118042 C 216.358734 283.636108 216.399078 283.656128 223.072144 283.657104 C 267.721741 283.66333 312.371429 283.707397 357.020874 283.618774 C 365.513062 283.601929 373.953125 282.566284 382.226624 280.557129 C 423.405518 270.557068 446.622986 226.651001 422.22113 188.294556 Z"/>
    <path id="path2" fill="#000000" stroke="none" d="M 315 62.020996 C 334.490906 62.053711 353.5271 61.223755 372.456848 62.825012 C 414.865601 66.412354 452.080872 82.066406 482.87262 111.962402 C 507.549988 135.921875 523.289307 164.75824 528.811157 198.70874 C 533.708313 228.818848 528.662354 257.817139 515.724182 285.269226 C 496.58374 325.881104 465.381836 353.45343 423.180115 368.494995 C 406.417114 374.469727 388.92395 377.221008 371.183594 377.248596 C 274.859894 377.398438 178.535797 377.333313 82.211853 377.277771 C 68.061722 377.269592 59.161987 363.997009 65.209396 352.240234 C 68.00708 346.801208 72.769562 343.855164 78.59198 344.151428 C 102.417694 345.363525 126.223511 343.933594 150.0383 344.012085 C 222.196899 344.250122 294.357239 343.939758 366.516174 344.120361 C 392.006958 344.184143 415.959106 338.54425 437.232056 324.622375 C 470.271301 303.000122 491.761597 272.961182 495.377258 232.9953 C 500.016541 181.715759 477.442749 143.463013 434.543396 116.694336 C 411.607666 102.38269 386.393799 95.103271 359.1651 95.171448 C 326.335999 95.253662 293.506287 95.093018 260.676941 95.114014 C 255.34671 95.117432 250.365021 94.204468 246.138336 90.806274 C 241.192047 86.829468 238.939606 81.718872 240.383514 75.354126 C 241.887299 68.725586 246.108948 64.500732 252.587006 62.825867 C 255.442017 62.087769 258.524384 62.019104 261.504669 62.009766 C 279.169586 61.954285 296.834839 62.005432 315 62.020996 Z"/>
</svg>
